<svg version="1.1" id="Layer_1" xmlns="http://www.w3.org/2000/svg" xmlns:xlink="http://www.w3.org/1999/xlink" x="0px" y="0px" viewBox="0 0 600 312" style="enable-background:new 0 0 600 312;" xml:space="preserve">
<style type="text/css">
	.st0{fill:#7d293b;}
	.st1{fill:none;stroke:#ffd9dd;stroke-width:1.2;stroke-miterlimit:10;}
	.st2{fill:#ffb2bc;}
	.st3{fill:none;stroke:#ffb2bc;stroke-width:1.2;stroke-linecap:round;stroke-linejoin:round;stroke-dasharray:4.14,5.18;}
	.st4{fill:none;stroke:#ffb2bc;stroke-width:1.2;stroke-linecap:round;stroke-linejoin:round;}
	.st5{fill:#5f1126;}
	.st6{fill:none;stroke:#ffb2bc;stroke-width:1.22;stroke-linecap:round;stroke-linejoin:round;}
	.st7{fill:none;stroke:#ffb2bc;stroke-width:1.02;stroke-linejoin:round;}
	.st8{fill:none;stroke:#ffb2bc;stroke-width:1.02;stroke-linecap:round;stroke-linejoin:round;}
</style>
<path class="st0" d="M388.4,261.7c0.8-10.6,6.2-20.4,14.8-26.7c8.4-5.9,19.1-7.5,28.8-4.2c10.4,3.6,18.9,12.7,29.8,14
	c8.1,1,16.2-2.6,24.4-2.4c15.4,0.4,28.2,18.6,26.2,34.8L388.4,261.7z"></path>
<path class="st1" d="M543.2,283.9c-277.6-58.6-486.3-0.4-486.3-0.4"></path>
<polygon class="st2" points="176.2,191.1 178,182.2 181,191.1 187.1,186.6 185.4,193.2 192.8,195.2 184.6,197 187.5,204.8
	181.1,199.5 175.1,206.6 176.3,198.3 167.9,197.6 173.7,194.4 167.5,186.2 "></polygon>
<path class="st2" d="M397.1,60.2l-0.2,0.3c-7.6,11.3-4.5,26.6,6.7,34.1l0,0c11.3,7.6,26.6,4.6,34.1-6.7l0.2-0.3L397.1,60.2z"></path>
<path class="st3" d="M450.8,77.6L450.8,77.6c-15.9-6.4-33.9,1.4-40.3,17.2l-0.2,0.5c-6.4,15.9,1.3,33.9,17.2,40.3l0,0
	c15.9,6.4,33.9-1.4,40.3-17.2l0.2-0.5C474.4,102,466.6,84,450.8,77.6z"></path>
<path class="st0" d="M477.8,167.2c-1.3-2.3-0.6-5.1,1.7-6.5h0.1c2.2-1.3,5.1-0.6,6.5,1.7c0,0,0,0,0,0l0,0c1.3,2.3,0.6,5.1-1.7,6.5
	h-0.1C482,170.2,479.1,169.5,477.8,167.2L477.8,167.2"></path>
<path class="st4" d="M185.1,92c3.7-2.3,8.5-1.8,11.8,1l18.4,15.9c4.2,3.7,4.7,10.1,1,14.3c-0.7,0.8-1.5,1.5-2.5,2.1
	c-3.7,2.3-8.5,1.9-11.8-1l-18.4-15.9c-4.2-3.7-4.7-10.1-1.1-14.3C183.3,93.3,184.2,92.6,185.1,92z"></path>
<path class="st4" d="M289,203.8c5.1,10.4,11.4,19.5,15,30.9c2.3,7.2,2.2,15.4,1.8,23.1l18,0.2c3.4-16.8,4.4-33.9,2.8-50.9"></path>
<path class="st4" d="M273.9,167.8c-2.1,14.4-2.2,29-0.5,43.4c0.8,6.4,2,12.8,2.4,19.3c0.5,8.3,2.1,19.3,0.1,27.4l17.3-0.2
	c4.9-13.8,5.3-36.1,5.3-36.1"></path>
<path class="st4" d="M353.4,219.6c-0.4-2.6-0.1-5.3,0.9-7.8l4.6-15.1c0.2-0.6-0.2-1.3-0.8-1.5c0,0-0.1,0-0.1,0l0,0
	c-0.5-0.1-1.1,0.2-1.3,0.6l-7.4,14.9c0,0-0.5,0.7-1.6-0.5c-1.8-2.1-18.4-21.6-18.4-21.6c-6.3-6.2-12.7-12.3-18.1-19.4"></path>
<path class="st4" d="M353.4,219.6c5.2,9.2,12.2,40.2,12.2,40.2l-21.3-1"></path>
<path class="st4" d="M344.3,258.8c-2-6.2-4.7-12.1-7.9-17.8c-1.8-2.9-3.4-5.9-4.9-9c-2-4.5-3.5-9.3-4.3-14.2"></path>
<circle class="st0" cx="296.5" cy="134.1" r="34.2"></circle>
<path class="st5" d="M318.5,141.8L318.5,141.8c-6.7,1.9-13.7,2.9-20.7,2.9h-4c-6.1,0-12.1-0.8-18-2.5l-1.3-0.4
	c-2.6-0.7-4.5-3.5-4.5-6.6v-8.8c0-3.1,1.8-5.9,4.5-6.6l1.3-0.4c5.9-1.7,11.9-2.5,18-2.5h4c7,0,13.9,1,20.7,2.9l0,0
	c2.6,0.7,4.5,3.5,4.5,6.6v8.8C322.9,138.3,321.1,141.1,318.5,141.8z"></path>
<path class="st6" d="M295.9,142.7c0,0,3.6-3.6,10.8-1.4"></path>
<path class="st7" d="M284.7,144c-1.4-5.3-2.5-10.6-3.2-16c-0.9-6.5,6-9.8,9.6-11"></path>
<path class="st7" d="M318.5,141.8L318.5,141.8c-6.7,1.9-13.7,2.9-20.7,2.9h-4c-6.1,0-12.1-0.8-18-2.5l-1.3-0.4
	c-2.6-0.7-4.5-3.5-4.5-6.6v-8.8c0-3.1,1.8-5.9,4.5-6.6l1.3-0.4c5.9-1.7,11.9-2.5,18-2.5h4c7,0,13.9,1,20.7,2.9l0,0
	c2.6,0.7,4.5,3.5,4.5,6.6v8.8C322.9,138.3,321.1,141.1,318.5,141.8z"></path>
<path class="st2" d="M302.3,132.4c0,0,3.9,5.5,6.8,1.8S307.2,127.3,302.3,132.4z"></path>
<path class="st2" d="M335.3,127.7c17.3,0,3.3,33-20.4,10.9c0.1-3.4-0.7-6.9-2.3-9.9c-2.3-4.1-6.9-7.4-10.3-11
	C302.3,117.6,325.7,127.7,335.3,127.7z"></path>
<path class="st2" d="M276.6,159.2l36.2-0.3c3.1,0,5.6,2.5,5.6,5.5v0c0,3.1-2.5,5.6-5.5,5.6l-36.2,0.3c-3.1,0-5.6-2.5-5.6-5.5v0
	C271,161.8,273.5,159.3,276.6,159.2z"></path>
<circle class="st5" cx="278" cy="164.8" r="2.6"></circle>
<path class="st2" d="M286.8,144c1.2-4.4,2-8.8,2.6-13.3c0.5-5.2-2.5-10.7-4.7-10.6s-5.2,5.4-5.2,5.4s-6,7.5-5.6,15.7
	C273.9,141.2,283.1,143.4,286.8,144z"></path>
<path class="st8" d="M326.1,243.3l1.3,15l13.2,0.4V249"></path>
<path class="st7" d="M301.3,116.8c0.9,1.4,2.1,2.8,3.4,3.9l4.8,4.6c1.4,1.2,2.6,2.6,3.7,4.1c2.8,4.4,2,9.6-1,13.9"></path>
<path class="st0" d="M132.2,123.7l3.6,3.6c4.5,4.5,4.5,11.8,0,16.2l-3.6,3.6c-4.5,4.5-11.8,4.5-16.2,0l-3.6-3.6
	c-4.5-4.5-4.5-11.8,0-16.2l3.6-3.6C120.4,119.2,127.7,119.2,132.2,123.7z"></path>
<g>
	<g>
		<g>
			<path class="st5" d="M409.7,97.3c-0.1,0-0.1,0-0.2,0c-0.3-0.1-0.5-0.4-0.4-0.8c0.2-0.5,0.4-1,0.5-1.5l0.2-0.5
				c0.3-0.7,0.6-1.3,0.9-2c0.1-0.3,0.5-0.4,0.8-0.3c0.3,0.1,0.4,0.5,0.3,0.8c-0.3,0.6-0.6,1.2-0.8,1.9l-0.2,0.5
				c-0.2,0.5-0.4,0.9-0.5,1.4C410.2,97.2,410,97.3,409.7,97.3z M413.9,89.1c-0.1,0-0.2,0-0.3-0.1c-0.3-0.2-0.3-0.6-0.1-0.8
				c0.8-1.1,1.7-2.2,2.7-3.3c0.2-0.2,0.6-0.3,0.8,0c0.2,0.2,0.3,0.6,0,0.8c-0.9,1-1.8,2-2.6,3.1C414.3,89,414.1,89.1,413.9,89.1z
				 M420.4,82.4c-0.2,0-0.4-0.1-0.5-0.2c-0.2-0.3-0.2-0.6,0.1-0.8c1.1-0.9,2.3-1.6,3.5-2.3c0.3-0.2,0.7-0.1,0.8,0.2
				c0.2,0.3,0.1,0.7-0.2,0.8c-1.2,0.7-2.3,1.4-3.4,2.2C420.6,82.3,420.5,82.4,420.4,82.4z"></path>
		</g>
	</g>
</g>
</svg>